<svg viewBox="0 0 512 512" width="512" height="512" xmlns="http://www.w3.org/2000/svg">
  <rect width="512" height="512" rx="100" fill="#0f172a" />
  
  <g transform="translate(100, 140) rotate(-15)">
    <rect x="8" y="8" width="180" height="260" rx="24" fill="#022c22" />
    <rect width="180" height="260" rx="24" fill="#064e3b" stroke="#10b981" stroke-width="12" />
    <circle cx="90" cy="130" r="40" fill="#10b981" opacity="0.15" />
    <line x1="40" y1="130" x2="140" y2="130" stroke="#10b981" stroke-width="4" opacity="0.3" />
  </g>

  <g transform="translate(260, 100) rotate(15)">
    <rect x="8" y="8" width="180" height="260" rx="24" fill="#0f172a" />
    <rect width="180" height="260" rx="24" fill="#1e293b" stroke="#34d399" stroke-width="12" />
    <path d="M 90 90 L 90 170 M 50 130 L 130 130" stroke="#34d399" stroke-width="8" stroke-linecap="round" opacity="0.3" />
  </g>

  <circle cx="256" cy="256" r="90" fill="#f59e0b" opacity="0.15" />

  <path d="M 310 100 L 190 270 L 260 270 L 170 440 L 340 240 L 270 240 Z" fill="#f59e0b" stroke="#0f172a" stroke-width="8" stroke-linejoin="round" />
  
  <circle cx="150" cy="190" r="10" fill="#f59e0b" />
  <circle cx="360" cy="350" r="14" fill="#fbbf24" />
  <circle cx="310" cy="420" r="8" fill="#10b981" />
  <circle cx="190" cy="110" r="12" fill="#34d399" />
  <circle cx="210" cy="350" r="6" fill="#f59e0b" opacity="0.6" />
</svg>
